; NON-PLATED HOLES START AT T1
; THROUGH (PLATED) HOLES START AT T100
M48
INCH
T100C0.059055
T101C0.039370
T102C0.040000
T103C0.035000
%
T100
X011764Y005617
X001764Y001617
X026764Y003617
X011764Y003617
X011764Y001617
X026764Y005617
X004764Y003617
X006764Y003617
X016764Y005617
X016764Y003617
X008764Y003617
X016764Y001617
X026764Y001617
X021764Y001617
X001764Y005617
X021764Y003617
X001764Y003617
X021764Y005617
T101
X027764Y009617
X027764Y007617
X027764Y011617
T102
X024764Y012617
X023764Y015617
X024764Y011617
X023764Y016617
X024764Y015617
X024764Y010617
X023764Y012617
X024764Y016617
X024764Y017617
X023764Y017617
X023764Y010617
X024764Y013617
X024764Y014617
X023764Y014617
X023764Y013617
X023764Y011617
T103
X011764Y016617
X005764Y010617
X015764Y016617
X009764Y016617
X007764Y016617
X015764Y010617
X013764Y010617
X002764Y010617
X002764Y016617
X009764Y010617
X005764Y016617
X004764Y010617
X003764Y016617
X016764Y016617
X016764Y010617
X012764Y010617
X012764Y016617
X008764Y010617
X008764Y016617
X014764Y010617
X010764Y010617
X003764Y010617
X006764Y016617
X010764Y016617
X004764Y016617
X013764Y016617
X014764Y016617
X011764Y010617
X006764Y010617
X007764Y010617
T00
M30
