G04 MADE WITH FRITZING*
G04 WWW.FRITZING.ORG*
G04 DOUBLE SIDED*
G04 HOLES PLATED*
G04 CONTOUR ON CENTER OF CONTOUR VECTOR*
%ASAXBY*%
%FSLAX23Y23*%
%MOIN*%
%OFA0B0*%
%SFA1.0B1.0*%
%ADD10C,0.085000*%
%ADD11C,0.089370*%
%ADD12C,0.109055*%
%ADD13C,0.084000*%
%ADD14R,0.085000X0.085000*%
%ADD15R,0.084000X0.084000*%
%LNMASK1*%
G90*
G70*
G54D10*
X276Y1062D03*
X276Y1662D03*
X376Y1062D03*
X376Y1662D03*
X476Y1062D03*
X476Y1662D03*
X576Y1062D03*
X576Y1662D03*
X676Y1062D03*
X676Y1662D03*
X776Y1062D03*
X776Y1662D03*
X876Y1062D03*
X876Y1662D03*
X976Y1062D03*
X976Y1662D03*
X1076Y1062D03*
X1076Y1662D03*
X1176Y1062D03*
X1176Y1662D03*
X1276Y1062D03*
X1276Y1662D03*
X1376Y1062D03*
X1376Y1662D03*
X1476Y1062D03*
X1476Y1662D03*
X1576Y1062D03*
X1576Y1662D03*
X1676Y1062D03*
X1676Y1662D03*
G54D11*
X2776Y1162D03*
X2776Y962D03*
X2776Y762D03*
G54D12*
X2676Y562D03*
X2676Y362D03*
X2676Y162D03*
X2176Y562D03*
X2176Y362D03*
X2176Y162D03*
X1676Y562D03*
X1676Y362D03*
X1676Y162D03*
X1176Y562D03*
X1176Y362D03*
X1176Y162D03*
X876Y362D03*
X676Y362D03*
X476Y362D03*
X176Y562D03*
X176Y362D03*
X176Y162D03*
G54D13*
X2376Y1062D03*
X2376Y1162D03*
X2376Y1262D03*
X2376Y1362D03*
X2376Y1462D03*
X2376Y1562D03*
X2376Y1662D03*
X2376Y1762D03*
X2476Y1062D03*
X2476Y1162D03*
X2476Y1262D03*
X2476Y1362D03*
X2476Y1462D03*
X2476Y1562D03*
X2476Y1662D03*
X2476Y1762D03*
G54D14*
X276Y1062D03*
G54D15*
X2476Y1062D03*
G04 End of Mask1*
M02*