; NON-PLATED HOLES START AT T1
; THROUGH (PLATED) HOLES START AT T100
M48
INCH
T1C0.086614
T100C0.039370
T101C0.059055
T102C0.035000
T103C0.040000
%
T1
X000927Y018768
X024023Y001265
X000919Y001255
X024030Y018751
T100
X022764Y009617
X022764Y011617
X022764Y007617
T101
X002764Y001617
X015764Y001617
X012764Y005617
X005764Y003617
X018764Y003617
X012764Y003617
X012764Y001617
X021764Y003617
X021764Y001617
X015764Y005617
X021764Y005617
X018764Y001617
X015764Y003617
X007764Y003617
X018764Y005617
X002764Y003617
X009764Y003617
X002764Y005617
T102
X008764Y016617
X010764Y010617
X006764Y010617
X002764Y016617
X002764Y010617
X003764Y016617
X011764Y010617
X014764Y010617
X012764Y010617
X009764Y016617
X005764Y010617
X015764Y010617
X013764Y010617
X004764Y016617
X015764Y016617
X003764Y010617
X008764Y010617
X014764Y016617
X016764Y010617
X004764Y010617
X007764Y016617
X013764Y016617
X009764Y010617
X012764Y016617
X006764Y016617
X005764Y016617
X007764Y010617
X011764Y016617
X016764Y016617
X010764Y016617
T103
X020764Y017617
X019764Y013617
X020764Y012617
X019764Y010617
X020764Y011617
X020764Y013617
X019764Y017617
X019764Y016617
X019764Y014617
X019764Y011617
X019764Y012617
X020764Y016617
X020764Y015617
X020764Y014617
X019764Y015617
X020764Y010617
T00
M30
